<svg width="873" height="157" viewBox="0 0 873 157" fill="none" xmlns="http://www.w3.org/2000/svg">
<g clip-path="url(#clip0_618_248)">
<path d="M15.8934 7.77383H45.6667V34.2938H67.0001V55.4005H45.6667V98.8805C45.6667 108.079 48.5467 109.881 58.4667 109.881H66.9467V131.347H48.0001C24.0001 131.347 15.8934 126.654 15.8934 104.107V55.4005H0.560059V34.2938H15.8934V7.77383Z" fill="white"/>
<path d="M96.3603 72.3603H138.387C137.84 60.0936 129.374 54.1336 118 54.1336C107.36 54.1336 97.9736 59.5469 96.3603 72.3603ZM167.614 100.867C158.947 123.774 138.574 133.694 119.227 133.694C87.6536 133.694 66.0135 114.574 66.0135 82.2803C66.0135 51.2536 89.6403 31.4136 118.014 31.4136C150.307 31.4136 170.014 55.7603 167.987 90.4003H95.987C96.8803 104.294 107.52 110.6 118.347 110.6C129.72 110.6 136.747 106.6 140.174 100.867H167.614Z" fill="white"/>
<path d="M270.08 69.8936H242.294C239.627 58.5203 232.56 54.5469 223.72 54.5469C213.054 54.5469 202.614 61.7736 202.614 82.5469C202.614 103.654 213.08 110.68 223.72 110.68C234.72 110.68 241.4 104.907 243.56 95.7069H271.347C264.667 124.56 241.4 133.694 221.894 133.694C189.894 133.694 172.28 113.134 172.28 82.2803C172.28 51.4269 192.56 31.4136 221.894 31.4136C242.12 31.4136 264.307 40.5603 270.08 69.8936Z" fill="white"/>
<path d="M304.56 47.1072C308.88 39.8938 319.347 32.1338 334.68 32.1338C359.573 32.1338 367.333 46.8005 367.333 73.0805V131.347H337.56V80.4805C337.56 66.5872 337.187 55.2272 322.76 55.2272C309.893 55.2272 304.56 63.5205 304.56 81.5605V131.347H274.773V0.560516H304.56V47.1072Z" fill="white"/>
<path d="M435.694 62.8005C433.707 55.5871 426.134 53.4671 416.747 53.4671C406.467 53.4671 401.24 55.8138 401.24 60.6805C401.24 65.2005 404.667 67.7205 413.147 69.3471L431.227 72.5605C454.494 76.8938 465.68 83.7458 465.68 100.894C465.68 122.72 445.68 133.72 418.774 133.72C392.974 133.72 374.574 122.72 371.147 99.8005H398.747C401.414 109.134 408.854 112.067 419.134 112.067C429.8 112.067 437.174 109.187 437.174 103.412C437.174 99.0791 433.387 96.3738 422.027 94.4005L404.694 91.5071C385.894 88.4125 373.094 79.0271 373.094 61.7205C373.094 42.4138 393.48 31.7738 417.467 31.7738C439.667 31.7738 459.68 40.6138 463.48 62.8005H435.694Z" fill="white"/>
<path d="M481.147 7.77383H510.919V34.2938H532.253V55.4005H510.919V98.8805C510.919 108.079 513.799 109.881 523.733 109.881H532.201V131.347H513.267C489.267 131.347 481.147 126.654 481.147 104.107V55.4005H465.814V34.2938H481.147V7.77383Z" fill="white"/>
<path d="M600.761 88.2801C580.013 90.2668 566.094 92.4401 566.094 103.08C566.094 109.387 572.054 113.547 579.814 113.547C591.707 113.547 600.733 108.493 600.733 90.6268L600.761 88.2801ZM600.041 66.9468C600.041 55.4001 594.441 51.4268 583.626 51.4268C574.054 51.4268 567.561 56.3068 566.293 65.6801H538.519C539.959 47.4668 557.281 31.2268 586.147 31.2268C614.147 31.2268 629.987 42.5868 629.441 72.0001L629.079 93.1068V103.227C629.079 113.893 629.799 125.413 631.253 131.36H602.026L601.667 119.64C594.441 129.919 582.894 133.707 569.013 133.707C550.614 133.707 535.454 122.88 535.454 105.2C535.454 81.3868 562.334 73.6401 600.041 70.7468V66.9468Z" fill="white"/>
<path d="M697.28 62.8005C694.596 62.3698 691.878 62.1872 689.16 62.2538C674.72 62.2538 667.334 67.4938 667.334 82.6392V131.347H637.56V34.2938H666.24V52.6938C670.76 41.1472 678.88 34.1205 692.76 33.5738H694.934C695.72 33.5378 696.508 33.5965 697.28 33.7472V62.8005Z" fill="white"/>
<path d="M763.12 62.8005C761.133 55.5871 753.56 53.4671 744.173 53.4671C733.893 53.4671 728.667 55.8138 728.667 60.6805C728.667 65.2005 732.093 67.7205 740.573 69.3471L758.613 72.5605C781.88 76.8938 793.067 83.7458 793.067 100.894C793.067 122.72 773.067 133.72 746.16 133.72C720.373 133.72 701.96 122.72 698.535 99.8005H726.133C728.8 109.134 736.24 112.067 746.52 112.067C757.187 112.067 764.56 109.187 764.56 103.412C764.56 99.0791 760.773 96.3738 749.413 94.4005L732.08 91.5071C713.333 88.4125 700.56 79.0271 700.56 61.7205C700.56 42.4138 720.947 31.7738 744.947 31.7738C767.133 31.7738 787.16 40.6138 790.947 62.8005H763.12Z" fill="white"/>
<path d="M792.707 131.347H872.987V156.428H792.707V131.347Z" fill="#39C463"/>
</g>
<defs>
<clipPath id="clip0_618_248">
<rect width="873" height="157" fill="white"/>
</clipPath>
</defs>
</svg>
