<svg width="660" height="112" viewBox="0 0 660 112" fill="none" xmlns="http://www.w3.org/2000/svg">
<path d="M0 5.09524C0 2.28122 2.28122 0 5.09524 0H28.873C31.687 0 33.9683 2.28122 33.9683 5.09524V28.873C33.9683 31.687 31.687 33.9683 28.873 33.9683H5.09524C2.28122 33.9683 0 31.687 0 28.873V5.09524Z" fill="white"/>
<path d="M39.0635 5.09524C39.0635 2.28122 41.3447 0 44.1587 0H101.905C104.719 0 107 2.28122 107 5.09524V28.873C107 31.687 104.719 33.9683 101.905 33.9683H44.1587C41.3447 33.9683 39.0635 31.687 39.0635 28.873V5.09524Z" fill="white"/>
<path d="M0 43.819C0 41.005 2.28122 38.7238 5.09524 38.7238H28.873C31.687 38.7238 33.9683 41.005 33.9683 43.8191V67.5968C33.9683 70.4109 31.687 72.6921 28.873 72.6921H5.09524C2.28122 72.6921 0 70.4109 0 67.5968V43.819Z" fill="white"/>
<path d="M39.0635 43.819C39.0635 41.005 41.3447 38.7238 44.1587 38.7238H84.9206C87.7346 38.7238 90.0159 41.005 90.0159 43.8191V67.5968C90.0159 70.4109 87.7346 72.6921 84.9206 72.6921H44.1587C41.3447 72.6921 39.0635 70.4109 39.0635 67.5968V43.819Z" fill="white"/>
<path d="M0 82.5429C0 79.7288 2.28122 77.4476 5.09524 77.4476H28.873C31.687 77.4476 33.9683 79.7288 33.9683 82.5429V106.321C33.9683 109.135 31.687 111.416 28.873 111.416H5.09524C2.28122 111.416 0 109.135 0 106.321V82.5429Z" fill="white"/>
<path d="M140.36 33.4C140.36 27.08 142.24 22 146 18.16C149.76 14.32 154.8 12.4 161.12 12.4H167.84V26.2H163.64C158.92 26.2 156.56 28.68 156.56 33.64V37.6H169.28V51.4H156.56V100H140.36V51.4H131.6V37.6H140.36V33.4ZM199.513 101.56C193.913 101.56 188.753 100.12 184.033 97.24C179.313 94.28 175.553 90.32 172.753 85.36C170.033 80.4 168.673 74.96 168.673 69.04C168.673 63.12 170.033 57.68 172.753 52.72C175.553 47.68 179.313 43.68 184.033 40.72C188.753 37.76 193.913 36.28 199.513 36.28C204.633 36.28 208.753 37.24 211.873 39.16C215.073 41.08 217.553 43.84 219.313 47.44V37.6H235.393V100H219.673V89.8C217.833 93.56 215.313 96.48 212.113 98.56C208.993 100.56 204.793 101.56 199.513 101.56ZM184.873 68.92C184.873 72.12 185.593 75.12 187.033 77.92C188.553 80.64 190.593 82.84 193.153 84.52C195.793 86.12 198.793 86.92 202.153 86.92C205.593 86.92 208.633 86.12 211.273 84.52C213.993 82.92 216.073 80.76 217.513 78.04C218.953 75.32 219.673 72.32 219.673 69.04C219.673 65.76 218.953 62.76 217.513 60.04C216.073 57.24 213.993 55.04 211.273 53.44C208.633 51.76 205.593 50.92 202.153 50.92C198.793 50.92 195.793 51.76 193.153 53.44C190.513 55.04 188.473 57.2 187.033 59.92C185.593 62.64 184.873 65.64 184.873 68.92ZM266.379 101.56C255.899 101.56 247.259 97.92 240.459 90.64L251.379 80.68C255.939 85.8 260.819 88.36 266.019 88.36C268.739 88.36 270.859 87.76 272.379 86.56C273.899 85.36 274.659 83.8 274.659 81.88C274.659 80.12 273.899 78.76 272.379 77.8C270.939 76.76 267.899 75.68 263.259 74.56C255.659 72.72 250.539 70.2 247.899 67C245.339 63.8 244.059 59.84 244.059 55.12C244.059 49.52 246.139 44.96 250.299 41.44C254.459 37.84 260.139 36.04 267.339 36.04C272.539 36.04 276.899 36.84 280.419 38.44C284.019 40.04 287.379 42.84 290.499 46.84L278.739 55.84C275.939 51.36 272.259 49.12 267.699 49.12C265.379 49.12 263.499 49.6 262.059 50.56C260.619 51.44 259.899 52.8 259.899 54.64C259.899 55.92 260.419 57.04 261.459 58C262.579 58.88 264.859 59.76 268.299 60.64C276.859 62.88 282.699 65.64 285.819 68.92C289.019 72.2 290.619 76.36 290.619 81.4C290.619 85.16 289.539 88.6 287.379 91.72C285.299 94.76 282.419 97.16 278.739 98.92C275.059 100.68 270.939 101.56 266.379 101.56ZM319.518 100C313.198 100 308.438 98.44 305.238 95.32C302.038 92.2 300.438 87.32 300.438 80.68V51.4H291.678V37.6H300.438V25L316.638 23.32V37.6H329.838V51.4H316.638V79.84C316.638 83.68 318.318 85.6 321.678 85.6H328.398V100H319.518ZM371.133 101.56C365.853 101.56 361.613 100.56 358.413 98.56C355.293 96.48 352.813 93.56 350.973 89.8V100H335.253V12.4H351.453V47.2C353.213 43.68 355.653 41 358.773 39.16C361.893 37.24 366.013 36.28 371.133 36.28C376.733 36.28 381.893 37.76 386.613 40.72C391.333 43.68 395.053 47.68 397.773 52.72C400.573 57.68 401.973 63.12 401.973 69.04C401.973 74.96 400.573 80.4 397.773 85.36C395.053 90.32 391.333 94.28 386.613 97.24C381.893 100.12 376.733 101.56 371.133 101.56ZM350.973 69.04C350.973 72.32 351.693 75.32 353.133 78.04C354.573 80.76 356.613 82.92 359.253 84.52C361.973 86.12 365.053 86.92 368.493 86.92C371.853 86.92 374.813 86.12 377.373 84.52C380.013 82.84 382.053 80.64 383.493 77.92C385.013 75.12 385.773 72.12 385.773 68.92C385.773 65.64 385.053 62.64 383.613 59.92C382.173 57.2 380.133 55.04 377.493 53.44C374.853 51.76 371.853 50.92 368.493 50.92C365.053 50.92 361.973 51.76 359.253 53.44C356.613 55.04 354.573 57.24 353.133 60.04C351.693 62.76 350.973 65.76 350.973 69.04ZM409.198 37.6H424.918V49.48C426.038 44.92 428.198 41.48 431.398 39.16C434.678 36.84 438.958 35.84 444.238 36.16V51.4H441.958C437.158 51.4 433.198 52.92 430.078 55.96C426.958 58.92 425.398 62.96 425.398 68.08V100H409.198V37.6ZM476.461 101.56C470.141 101.56 464.541 100.12 459.661 97.24C454.781 94.28 450.981 90.32 448.261 85.36C445.541 80.4 444.181 74.92 444.181 68.92C444.181 63 445.581 57.52 448.381 52.48C451.181 47.44 455.021 43.44 459.901 40.48C464.861 37.52 470.381 36.04 476.461 36.04C482.541 36.04 487.981 37.52 492.781 40.48C497.661 43.44 501.421 47.44 504.061 52.48C506.781 57.44 508.141 62.92 508.141 68.92C508.141 70.92 507.981 72.84 507.661 74.68H460.981C461.941 78.44 463.741 81.48 466.381 83.8C469.101 86.04 472.461 87.16 476.461 87.16C479.821 87.16 482.821 86.4 485.461 84.88C488.101 83.28 490.181 81.24 491.701 78.76L504.301 88.24C501.741 92.24 497.981 95.48 493.021 97.96C488.061 100.36 482.541 101.56 476.461 101.56ZM491.821 62.56C490.861 58.96 488.981 55.96 486.181 53.56C483.381 51.16 480.061 49.96 476.221 49.96C472.461 49.96 469.181 51.12 466.381 53.44C463.661 55.76 461.861 58.8 460.981 62.56H491.821ZM542.873 101.56C537.273 101.56 532.113 100.12 527.393 97.24C522.673 94.28 518.913 90.32 516.113 85.36C513.393 80.4 512.033 74.96 512.033 69.04C512.033 63.12 513.393 57.68 516.113 52.72C518.913 47.68 522.673 43.68 527.393 40.72C532.113 37.76 537.273 36.28 542.873 36.28C547.993 36.28 552.113 37.24 555.233 39.16C558.433 41.08 560.913 43.84 562.673 47.44V37.6H578.753V100H563.033V89.8C561.193 93.56 558.673 96.48 555.473 98.56C552.353 100.56 548.153 101.56 542.873 101.56ZM528.233 68.92C528.233 72.12 528.953 75.12 530.393 77.92C531.913 80.64 533.953 82.84 536.513 84.52C539.153 86.12 542.153 86.92 545.513 86.92C548.953 86.92 551.993 86.12 554.633 84.52C557.353 82.92 559.433 80.76 560.873 78.04C562.313 75.32 563.033 72.32 563.033 69.04C563.033 65.76 562.313 62.76 560.873 60.04C559.433 57.24 557.353 55.04 554.633 53.44C551.993 51.76 548.953 50.92 545.513 50.92C542.153 50.92 539.153 51.76 536.513 53.44C533.873 55.04 531.833 57.2 530.393 59.92C528.953 62.64 528.233 65.64 528.233 68.92ZM604.578 70.36V100H588.378V12.4H604.578V62.8L627.978 37.6H651.018L621.618 66.64L651.138 100H629.658L604.578 70.36Z" fill="white"/>
</svg>
